<?xml version="1.0" encoding="UTF-8" standalone="no"?>
<!-- Created with Inkscape (http://www.inkscape.org/) -->

<svg
   xmlns:dc="http://purl.org/dc/elements/1.1/"
   xmlns:cc="http://creativecommons.org/ns#"
   xmlns:rdf="http://www.w3.org/1999/02/22-rdf-syntax-ns#"
   xmlns:svg="http://www.w3.org/2000/svg"
   xmlns="http://www.w3.org/2000/svg"
   xmlns:xlink="http://www.w3.org/1999/xlink"
   xmlns:sodipodi="http://sodipodi.sourceforge.net/DTD/sodipodi-0.dtd"
   xmlns:inkscape="http://www.inkscape.org/namespaces/inkscape"
   sodipodi:docname="Igel-small.svg"
   inkscape:version="0.91 r13725"
   version="1.1"
   id="svg2"
   height="89.329918"
   width="110.96347">
  <title
     id="title2998">hedgehog - coloured</title>
  <sodipodi:namedview
     id="base"
     pagecolor="#ffffff"
     bordercolor="#666666"
     borderopacity="1.0"
     inkscape:pageopacity="0.0"
     inkscape:pageshadow="2"
     inkscape:zoom="4"
     inkscape:cx="27.282496"
     inkscape:cy="30.082447"
     inkscape:document-units="mm"
     inkscape:current-layer="layer1"
     showgrid="false"
     inkscape:window-width="1827"
     inkscape:window-height="1237"
     inkscape:window-x="327"
     inkscape:window-y="46"
     inkscape:window-maximized="0"
     fit-margin-top="1"
     fit-margin-right="1"
     fit-margin-bottom="1"
     fit-margin-left="1"
     inkscape:snap-global="false" />
  <defs
     id="defs4">
    <linearGradient
       inkscape:collect="always"
       id="linearGradient6013">
      <stop
         style="stop-color:#e098a0;stop-opacity:1"
         offset="0"
         id="stop6015" />
      <stop
         id="stop6021"
         offset="0.15606821"
         style="stop-color:#d3747d;stop-opacity:1;" />
      <stop
         style="stop-color:#c85761;stop-opacity:1;"
         offset="0.26873815"
         id="stop6023" />
      <stop
         id="stop6025"
         offset="0.82670146"
         style="stop-color:#b82935;stop-opacity:1;" />
      <stop
         style="stop-color:#801922;stop-opacity:1"
         offset="1"
         id="stop6017" />
    </linearGradient>
    <pattern
       inkscape:collect="always"
       xlink:href="#Polkadots-large"
       id="pattern5852"
       patternTransform="matrix(1.6025866,0,0,1.9025866,481.53972,170.41273)" />
    <pattern
       inkscape:isstock="true"
       inkscape:stockid="Polka dots, large"
       id="Polkadots-large"
       patternTransform="translate(0,0) scale(10,10)"
       height="10"
       width="10"
       patternUnits="userSpaceOnUse"
       inkscape:collect="always">
      <circle
         id="circle5493"
         r="0.45"
         cy="0.810"
         cx="2.567"
         style="fill:black;stroke:none" />
      <circle
         id="circle5495"
         r="0.45"
         cy="2.33"
         cx="3.048"
         style="fill:black;stroke:none" />
      <circle
         id="circle5497"
         r="0.45"
         cy="2.415"
         cx="4.418"
         style="fill:black;stroke:none" />
      <circle
         id="circle5499"
         r="0.45"
         cy="3.029"
         cx="1.844"
         style="fill:black;stroke:none" />
      <circle
         id="circle5501"
         r="0.45"
         cy="1.363"
         cx="6.08"
         style="fill:black;stroke:none" />
      <circle
         id="circle5503"
         r="0.45"
         cy="4.413"
         cx="5.819"
         style="fill:black;stroke:none" />
      <circle
         id="circle5505"
         r="0.45"
         cy="4.048"
         cx="4.305"
         style="fill:black;stroke:none" />
      <circle
         id="circle5507"
         r="0.45"
         cy="3.045"
         cx="5.541"
         style="fill:black;stroke:none" />
      <circle
         id="circle5509"
         r="0.45"
         cy="5.527"
         cx="4.785"
         style="fill:black;stroke:none" />
      <circle
         id="circle5511"
         r="0.45"
         cy="5.184"
         cx="2.667"
         style="fill:black;stroke:none" />
      <circle
         id="circle5513"
         r="0.45"
         cy="1.448"
         cx="7.965"
         style="fill:black;stroke:none" />
      <circle
         id="circle5515"
         r="0.45"
         cy="5.049"
         cx="7.047"
         style="fill:black;stroke:none" />
      <circle
         id="circle5517"
         r="0.45"
         cy="0.895"
         cx="4.340"
         style="fill:black;stroke:none" />
      <circle
         id="circle5519"
         r="0.45"
         cy="0.340"
         cx="7.125"
         style="fill:black;stroke:none" />
      <circle
         id="circle5521"
         r="0.45"
         cy="1.049"
         cx="9.553"
         style="fill:black;stroke:none" />
      <circle
         id="circle5523"
         r="0.45"
         cy="2.689"
         cx="7.006"
         style="fill:black;stroke:none" />
      <circle
         id="circle5525"
         r="0.45"
         cy="2.689"
         cx="8.909"
         style="fill:black;stroke:none" />
      <circle
         id="circle5527"
         r="0.45"
         cy="4.407"
         cx="9.315"
         style="fill:black;stroke:none" />
      <circle
         id="circle5529"
         r="0.45"
         cy="3.870"
         cx="7.820"
         style="fill:black;stroke:none" />
      <circle
         id="circle5531"
         r="0.45"
         cy="5.948"
         cx="8.270"
         style="fill:black;stroke:none" />
      <circle
         id="circle5533"
         r="0.45"
         cy="7.428"
         cx="7.973"
         style="fill:black;stroke:none" />
      <circle
         id="circle5535"
         r="0.45"
         cy="8.072"
         cx="9.342"
         style="fill:black;stroke:none" />
      <circle
         id="circle5537"
         r="0.45"
         cy="9.315"
         cx="8.206"
         style="fill:black;stroke:none" />
      <circle
         id="circle5539"
         r="0.45"
         cy="9.475"
         cx="9.682"
         style="fill:black;stroke:none" />
      <circle
         id="circle5541"
         r="0.45"
         cy="6.186"
         cx="9.688"
         style="fill:black;stroke:none" />
      <circle
         id="circle5543"
         r="0.45"
         cy="6.296"
         cx="3.379"
         style="fill:black;stroke:none" />
      <circle
         id="circle5545"
         r="0.45"
         cy="8.204"
         cx="2.871"
         style="fill:black;stroke:none" />
      <circle
         id="circle5547"
         r="0.45"
         cy="8.719"
         cx="4.59"
         style="fill:black;stroke:none" />
      <circle
         id="circle5549"
         r="0.45"
         cy="9.671"
         cx="3.181"
         style="fill:black;stroke:none" />
      <circle
         id="circle5551"
         r="0.45"
         cy="7.315"
         cx="5.734"
         style="fill:black;stroke:none" />
      <circle
         id="circle5553"
         r="0.45"
         cy="6.513"
         cx="6.707"
         style="fill:black;stroke:none" />
      <circle
         id="circle5555"
         r="0.45"
         cy="9.670"
         cx="5.730"
         style="fill:black;stroke:none" />
      <circle
         id="circle5557"
         r="0.45"
         cy="8.373"
         cx="6.535"
         style="fill:black;stroke:none" />
      <circle
         id="circle5559"
         r="0.45"
         cy="7.154"
         cx="4.37"
         style="fill:black;stroke:none" />
      <circle
         id="circle5561"
         r="0.45"
         cy="7.25"
         cx="0.622"
         style="fill:black;stroke:none" />
      <circle
         id="circle5563"
         r="0.45"
         cy="5.679"
         cx="0.831"
         style="fill:black;stroke:none" />
      <circle
         id="circle5565"
         r="0.45"
         cy="8.519"
         cx="1.257"
         style="fill:black;stroke:none" />
      <circle
         id="circle5567"
         r="0.45"
         cy="6.877"
         cx="1.989"
         style="fill:black;stroke:none" />
      <circle
         id="circle5569"
         r="0.45"
         cy="3.181"
         cx="0.374"
         style="fill:black;stroke:none" />
      <circle
         id="circle5571"
         r="0.45"
         cy="1.664"
         cx="1.166"
         style="fill:black;stroke:none" />
      <circle
         id="circle5573"
         r="0.45"
         cy="0.093"
         cx="1.151"
         style="fill:black;stroke:none" />
      <circle
         id="circle5575"
         r="0.45"
         cy="10.093"
         cx="1.151"
         style="fill:black;stroke:none" />
      <circle
         id="circle5577"
         r="0.45"
         cy="4.451"
         cx="1.302"
         style="fill:black;stroke:none" />
      <circle
         id="circle5579"
         r="0.45"
         cy="3.763"
         cx="3.047"
         style="fill:black;stroke:none" />
    </pattern>
    <radialGradient
       inkscape:collect="always"
       xlink:href="#linearGradient6013"
       id="radialGradient6019"
       cx="349.18793"
       cy="180.92467"
       fx="349.18793"
       fy="180.92467"
       r="4.8707349"
       gradientTransform="matrix(0.65879633,1.3191049,-1.1441043,0.57139631,326.28266,-383.77274)"
       gradientUnits="userSpaceOnUse" />
  </defs>
  <metadata
     id="metadata7">
    <rdf:RDF>
      <cc:Work
         rdf:about="">
        <dc:format>image/svg+xml</dc:format>
        <dc:type
           rdf:resource="http://purl.org/dc/dcmitype/StillImage" />
        <dc:title>hedgehog - coloured</dc:title>
        <dc:date>2015-02-16</dc:date>
        <dc:creator>
          <cc:Agent>
            <dc:title>Frank Tremmel</dc:title>
          </cc:Agent>
        </dc:creator>
        <dc:subject>
          <rdf:Bag>
            <rdf:li>hedgehog</rdf:li>
            <rdf:li>Igel</rdf:li>
            <rdf:li>animal</rdf:li>
            <rdf:li>tier</rdf:li>
            <rdf:li>outline</rdf:li>
            <rdf:li>line art</rdf:li>
            <rdf:li></rdf:li>
          </rdf:Bag>
        </dc:subject>
        <dc:description>coloured line art hedgehog</dc:description>
        <cc:license
           rdf:resource="http://creativecommons.org/publicdomain/zero/1.0/" />
      </cc:Work>
      <cc:License
         rdf:about="http://creativecommons.org/publicdomain/zero/1.0/">
        <cc:permits
           rdf:resource="http://creativecommons.org/ns#Reproduction" />
        <cc:permits
           rdf:resource="http://creativecommons.org/ns#Distribution" />
        <cc:permits
           rdf:resource="http://creativecommons.org/ns#DerivativeWorks" />
      </cc:License>
    </rdf:RDF>
  </metadata>
  <g
     inkscape:label="Ebene 1"
     inkscape:groupmode="layer"
     id="layer1"
     transform="translate(-344.91955,-134.62)">
    <path
       style="fill:#ffffff;fill-opacity:1;fill-rule:evenodd;stroke:#00ff00;stroke-width:0.35433072;stroke-linecap:butt;stroke-linejoin:miter;stroke-miterlimit:4;stroke-dasharray:none;stroke-opacity:1"
       d="m 61.125,66.25 5.5,11.25 c -8.36001,-5.94273 -12.20035,-8.32838 -14.25,-8.625 2.86811,3.62898 6.55375,7.49155 7.25,10.5 -5.74907,-3.59505 -10.02255,-3.74707 -14.875,-5.25 2.36706,2.3416 5.92248,4.48514 6.5,7.125 -5.02504,-1.30767 -10.14314,-1.12642 -15.5,2.875 4.38323,-0.29736 11.03485,-2.16515 11.5,0.25 -4.50255,1.49 -9.64784,1.77488 -11.625,8 3.98967,-2.97307 7.0515,-4.27604 9.375,-4.25 -3.28522,2.99589 -6.613,5.97962 -7.625,9.625 L 45,92.5 c -1.52796,2.41192 -2.34263,5.29936 -2.875,8.375 l 6.25,-4.125 c 0,0 -0.20624,5.9948 -1.25,8.75 -0.72464,1.91283 -1.68444,3.97346 -3.375,5.125 -1.33728,0.9109 -4.75,1 -4.75,1 0,0 -1.73163,-4.51542 -3.75,-4.875 -2.23064,-0.39739 -5.06582,1.46501 -5.75,3.625 -0.65426,2.06552 0.74121,4.73465 2.5,6 0.94945,0.68308 3.5,0.25 3.5,0.25 0,0 2.1946,7.43735 4.875,10 4.16812,3.98501 10.29727,5.41129 15.875,6.875 3.82396,1.00348 9.26509,-0.14192 11.75,0.375 0.80359,0.97987 0.0755,2.69397 -0.625,3.75 -1.63577,2.46601 -6.39455,2.00502 -7.5,4.75 -0.8494,2.10918 -0.21299,5.28637 1.625,6.625 0.94546,0.68859 2.33236,-0.31833 3.5,-0.25 1.77842,3.04623 3.47477,2.08777 5.25,1 2.96005,2.34211 4.29529,0.72152 6,-0.125 3.57509,2.46279 5.19777,1.96161 6.25,-0.5 2.16329,-4.18511 1.77483,-9.78024 2.125,-13.75 0.0789,-0.89406 2,-3.75 2,-3.75 0.76417,3.23583 2.0761,5.9239 3.5,8.5 l 2.5,-7.25 c 1.25951,2.59941 2.5602,5.17823 5.125,7.125 l 0.75,-5.25 c 1.87976,3.59167 4.0409,5.21367 6.25,6.5 0,0 -1.10967,1.68766 -1.625,2.875 -0.44239,1.01928 -0.50157,2.11799 2,3 0.86807,0.30606 2.73786,-1.17037 2.75,-0.25 0.0647,4.90628 3.34811,3.63427 5.625,3.125 1.73748,1.03472 3.88168,1.19807 5.75,-0.25 2.44155,1.09376 4.23353,1.12029 5,-2.25 0.56484,-2.48371 -1.34704,-4.91299 -2,-7.375 -0.29793,-1.12336 -0.6747,-2.2302 -0.875,-3.375 C 121.06487,134.97752 120,132 120,132 c 3.1409,0.72423 5.17799,0.34466 7,-0.25 -4.05068,-2 -4.23291,-3.625 -6.5,-5.625 4.42397,0.0881 8.57288,0.58843 12.375,-1.5 L 126.25,121 c 4.7855,-2.06188 7.28683,-3.89535 8.75,-5.625 -2.53819,0.35763 -4.79083,-0.71253 -7,-2 l 8.375,-6.875 c -2.31202,0.64632 -5.43478,0.48189 -8.375,0.5 2.74221,-2.45639 6.04465,-5.05283 6.25,-6.875 -2.12344,0.088 -4.29708,0.0254 -6.75,-0.875 2.87558,-2.04128 5.40437,-3.81375 6.375,-7.125 l -9.25,-0.625 5.5,-6.25 c -2.62862,1.11054 -5.54233,1.08068 -8.5,0.875 1.4966,-2.8142 2.4605,-5.89475 2.625,-9.375 -1.57026,2.64679 -4.76642,3.75041 -7.25,4.875 -1.24488,-3.56215 -2.43587,-7.33984 -4,-9.625 -0.91835,2.26633 -1.71738,4.55652 -4.25,6.5 -1.15466,-3.22034 -1.51891,-6.73109 -4.25,-8.375 l -2.125,7.125 c -1.90786,-4.35562 -3.77165,-9.24015 -6,-9.75 0.2983,3.25331 -0.89637,5.76015 -1.875,8.375 -2.18723,-3.11498 -4.29567,-6.34817 -7.125,-8.5 0.68547,2.75 1.54725,5.5 0.625,8.25 -2.64094,-3.18443 -4.30192,-7.83878 -8.125,-9.25 L 81.5,75 c -3.81702,-3.58685 -7.74425,-8.27588 -11.25,-8.75 1.82684,2.83333 3.04118,5.66667 2.875,8.5 -5.41062,-5.65458 -8.49082,-6.6483 -12,-8.5 z m 42.75,68 4.5,2.5 -3.5,3.375 -1,-5.875 z"
       transform="translate(317.11935,70.881717)"
       id="path4315"
       inkscape:connector-curvature="0" />
    <path
       style="fill:url(#radialGradient6019);fill-rule:evenodd;stroke:#ff0000;stroke-width:0.35433072;stroke-linecap:butt;stroke-linejoin:miter;stroke-miterlimit:4;stroke-dasharray:none;stroke-opacity:1;fill-opacity:1"
       d="m 355.91955,181.94992 c -0.95506,-3.39014 -3.95878,-4.88592 -5.75,-4.25 -2.42431,0.86068 -4.08803,4.56777 -3.25,7 0.68596,1.99085 3.66231,3.63782 5.625,2.875 2.44547,-0.95046 4.08644,-3.09962 3.375,-5.625 z"
       id="path6011"
       inkscape:connector-curvature="0"
       sodipodi:nodetypes="sssss" />
    <path
       style="fill:#b48a1b;fill-rule:evenodd;stroke:#d45500;stroke-width:0.35433072;stroke-linecap:butt;stroke-linejoin:miter;stroke-miterlimit:4;stroke-dasharray:none;stroke-opacity:1;fill-opacity:1"
       d="m 424.79455,207.32492 -0.625,2.125 -3.75,4.125 c -0.2281,3.35096 0.49995,3.83348 1.25,4.25 1.19405,0.63693 2.26378,0.65225 3.125,-0.375 -0.0403,-4.6532 2.107,-4.38425 3.25,-6.375 l 0.125,-2.5 z"
       id="path6009"
       inkscape:connector-curvature="0"
       sodipodi:nodetypes="cccccccc" />
    <path
       style="fill:#ffcb3f;fill-rule:evenodd;stroke:#ff6600;stroke-width:0.35433072;stroke-linecap:butt;stroke-linejoin:miter;stroke-miterlimit:4;stroke-dasharray:none;stroke-opacity:1;fill-opacity:1"
       d="m 367.04455,166.82492 -2.625,5 -0.375,6.375 c -1.77965,1.91126 -2.45276,4.28357 -8,4.625 -0.20659,2.19768 -0.85621,4.0789 -3.375,4.625 0.44825,4.84947 2.27768,7.40669 4.5,9.5 4.9271,4.64108 9.33733,5.80352 14.375,7.125 4.24053,1.11238 8.75,1.64707 13.125,0.125 0.41543,1.22979 1.56587,2.09207 0.125,4.25 l -7.375,4.125 c -2.16483,4.37347 -0.77288,5.78296 1,6.875 l 4.25,1 c 1.11986,1.04024 2.55546,1.52795 5,0.25 1.57846,0.44947 2.39754,2.11393 5.5,0.125 2.45608,0.994 4.78103,1.6383 6.25,0 l 1.875,-3.375 0.625,-9.875 c 0.49007,-3.99407 1.80333,-6.75334 3.625,-8.75 l 20.875,2.25 2.5,7 c -0.34071,1.75897 -0.68308,3.51684 -2,4.625 l -2,4.625 c 0.55471,2.92177 1.50446,2.84823 2.375,3.875 l 2.625,-0.625 c 2,1.62728 4,1.10924 6,-0.25 1.625,0.49714 3.25,2.28921 4.875,-0.625 l 0.25,-3.75 c -2.42485,-3.98839 -2.91007,-8.75264 -3.75,-13.375 l -1.5,-4.875 -44.75,-26.125 -19.5,-7.125 z"
       id="path6007"
       inkscape:connector-curvature="0"
       sodipodi:nodetypes="cccccssccccccccccccccccccccccccc" />
    <path
       style="fill:#ffffff;fill-rule:evenodd;stroke:#0000ff;stroke-width:0.35433072;stroke-linecap:butt;stroke-linejoin:miter;stroke-miterlimit:4;stroke-dasharray:none;stroke-opacity:1;fill-opacity:1"
       d="m 372.41955,187.13742 -0.875,-2.125 c 0,0 -1.69814,-3.25988 -1.375,-4.9375 0.27269,-1.4157 1.2023,-3.20405 2.625,-3.4375 2.13253,-0.34992 4.28708,2.19551 5.125,4.1875 0.58306,1.38612 -0.5625,3.875 -0.5625,3.875 z"
       id="path6027"
       inkscape:connector-curvature="0"
       sodipodi:nodetypes="ccssscc" />
    <path
       style="fill:#682500;fill-opacity:1;fill-rule:evenodd;stroke:#ff0000;stroke-width:0.35433072;stroke-linecap:butt;stroke-linejoin:miter;stroke-miterlimit:4;stroke-dasharray:none;stroke-opacity:1"
       d="m 365.58291,167.00083 c 0,0 -6.3125,4.9375 -6.3125,4.4375 -0.75,-1.625 2.9375,-8.4375 2.9375,-8.4375 l -7.4375,5.625 c 1.38925,-2.87437 2.50867,-6.44924 7.8125,-9.75 -2.40766,0.0575 -5.2874,0.79728 -9.875,4.75 0.71683,-1.39098 0.17909,-2.15285 2.375,-4.875 2.28883,-1.77225 5.5922,-3.09973 9.875,-3.875 -0.77283,-0.60081 -2.10746,-1.25658 -5.5,-0.875 0,0 -4.4375,0.5625 -6,0.8125 0.10095,-0.61139 6.14954,-4.1172 6.625,-3.5625 2.39148,-0.22838 4.52225,-0.69741 9,1 -0.76557,-1.4826 -3.80357,-4.33433 -7,-7.4375 5,1.1155 9.75,2.92064 14.75,5.1875 -1.23157,-2.10111 -1.5387,-2.89739 -7.0625,-10.5625 2.87559,0.71831 8.22305,4.34669 14.0625,8.6875 l -5.625,-10.875 c 1.69489,0.12308 5.11926,2.02504 12.625,8.125 l -3.75,-8.875 c 3.81181,1.70192 7.60264,3.8445 11.25,9 0.42954,-3.66116 -0.88541,-6.52936 -2.25,-9.375 2.94072,1.61716 6.01942,5.58022 9.125,10 -0.0691,-2.56905 -0.007,-5.00733 -0.875,-8.375 2.88217,2.23566 5.07407,5.85187 7.5,9 0.84801,-2.60152 1.82575,-4.99547 1.875,-8.875 2.87068,1.35922 3.79272,6.33733 5.625,9.625 l 2.125,-6.9375 c 2.56407,1.4041 3.05759,5.65519 4.4375,8.6875 1.11468,-0.69842 2.35866,-2.23079 4.1875,-6.125 2.08186,1.62721 2.5545,5.66826 3.75,8.625 2.54122,0.36563 5.00045,-0.99065 7.375,-4.125 -0.0666,1.96062 -0.26854,4.09527 -2.625,9 2.77419,0.85888 5.68592,0.20493 8.625,-0.75 l -5.25,6.375 8.875,0.875 c -1.21588,2.50399 -3.30504,4.74599 -6.1875,6.75 3.27943,1.06323 4.35217,0.70913 7.3125,1.125 l -6,6.75 6.8125,-0.4375 c -0.61181,1.53611 -3.91333,3.90361 -7.125,6.375 1.94792,1.74219 4.07668,2.43685 6.6875,2.6875 -2.60552,2.93345 -5.94572,3.66285 -9,5.25 l 6.625,3.5 c -3.68698,1.32129 -7.38551,2.62093 -12.375,1.5 1.22787,3.03551 3.82475,4.57754 6.875,5.625 -4.14431,1.18801 -7.92651,0.0223 -11.75,-0.875 1.90611,2.54811 3.89803,4.97609 6.625,6.375 -4.46471,0.99285 -8.75965,-2.25869 -13.0625,-5.3125 0.67993,1.07007 3.36453,7.38547 2.9375,7.1875 -0.7317,0.21339 -8.55658,-5.38683 -8.5,-5.5 l 1.375,7.75 c -2.18193,-1.11261 -4.23341,-3.39929 -6.25,-6 l -0.75,4.875 -5.25,-6.625 c -1.24658,0.93321 -1.82945,3.45932 -2.25,6.375 -1.90419,-1.83607 -3.22008,-4.45656 -4.125,-7.625 -1.28919,1.10065 -2.36618,3.68674 -3.5,5.875 -1.09662,-2.26841 -2.29291,-4.36241 -2.75,-7.75 -1.70169,1.46308 -2.83995,3.32861 -3.375,5.625 -1.29182,-1.63845 -1.58047,-4.53842 -1.875,-8.375 -0.20806,-0.60246 -3.625,2.4375 -3.625,2.4375 l 0.25,-9.3125 c -1.22661,0.53545 -2.82963,3.51761 -4.375,6.125 -0.0866,-2.59389 -1.55387,-2.59206 2.25,-12.5 l -4.3125,0.75 c 2.04441,-2.34982 1.51012,-3.78051 5.9375,-6.875 l -6.375,0.4375 c 1.36511,-1.83771 2.76718,-3.95271 5.75,-6.4375 -1.875,0.70639 -4.1875,1.40717 -6.0625,1.625 0.93542,-1.8875 1.76173,-3.60239 -0.4375,-4.5 -2.26359,-0.18705 -2.26416,3.02043 -3,5.125 -2.67961,-0.82883 -3.34113,-3.57749 -4.0625,-5.875 l -2.1875,4.875 c -1.28857,-1.52252 -1.75126,-4.41981 -2.6875,-4.1875 -1.3984,1.4875 -3.4375,4.6875 -3.4375,4.6875 -1.51162,-0.27423 -0.32486,-4.59605 0,-7.625 z"
       id="path4322-1"
       inkscape:connector-curvature="0"
       sodipodi:nodetypes="cccccccccccccccccccccccccccccccccccccccccccccccccccccccccccccccccccccccccccc" />
    <path
       style="fill:url(#pattern5852);fill-opacity:1;fill-rule:evenodd;stroke:#ff0000;stroke-width:0.35433072;stroke-linecap:butt;stroke-linejoin:miter;stroke-miterlimit:4;stroke-dasharray:none;stroke-opacity:1"
       d="m 365.54455,167.19992 c 0,0 -6.3125,4.9375 -6.3125,4.4375 -0.75,-1.625 2.9375,-8.4375 2.9375,-8.4375 l -7.4375,5.625 c 1.38925,-2.87437 2.50867,-6.44924 7.8125,-9.75 -2.40766,0.0575 -5.2874,0.79728 -9.875,4.75 0.71683,-1.39098 0.17909,-2.15285 2.375,-4.875 2.28883,-1.77225 5.5922,-3.09973 9.875,-3.875 -0.77283,-0.60081 -2.10746,-1.25658 -5.5,-0.875 0,0 -4.4375,0.5625 -6,0.8125 0.10095,-0.61139 6.14954,-4.1172 6.625,-3.5625 2.39148,-0.22838 4.52225,-0.69741 9,1 -0.76557,-1.4826 -3.80357,-4.33433 -7,-7.4375 5,1.1155 9.75,2.92064 14.75,5.1875 -1.23157,-2.10111 -1.5387,-2.89739 -7.0625,-10.5625 2.87559,0.71831 8.22305,4.34669 14.0625,8.6875 l -5.625,-10.875 c 1.69489,0.12308 5.11926,2.02504 12.625,8.125 l -3.75,-8.875 c 3.81181,1.70192 7.60264,3.8445 11.25,9 0.42954,-3.66116 -0.88541,-6.52936 -2.25,-9.375 2.94072,1.61716 6.01942,5.58022 9.125,10 -0.0691,-2.56905 -0.007,-5.00733 -0.875,-8.375 2.88217,2.23566 5.07407,5.85187 7.5,9 0.84801,-2.60152 1.82575,-4.99547 1.875,-8.875 2.87068,1.35922 3.79272,6.33733 5.625,9.625 l 2.125,-6.9375 c 2.56407,1.4041 3.05759,5.65519 4.4375,8.6875 1.11468,-0.69842 2.35866,-2.23079 4.1875,-6.125 2.08186,1.62721 2.5545,5.66826 3.75,8.625 2.54122,0.36563 5.00045,-0.99065 7.375,-4.125 -0.0666,1.96062 -0.26854,4.09527 -2.625,9 2.77419,0.85888 5.68592,0.20493 8.625,-0.75 l -5.25,6.375 8.875,0.875 c -1.21588,2.50399 -3.30504,4.74599 -6.1875,6.75 3.27943,1.06323 4.35217,0.70913 7.3125,1.125 l -6,6.75 6.8125,-0.4375 c -0.61181,1.53611 -3.91333,3.90361 -7.125,6.375 1.94792,1.74219 4.07668,2.43685 6.6875,2.6875 -2.60552,2.93345 -5.94572,3.66285 -9,5.25 l 6.625,3.5 c -3.68698,1.32129 -7.38551,2.62093 -12.375,1.5 1.22787,3.03551 3.82475,4.57754 6.875,5.625 -4.14431,1.18801 -7.92651,0.0223 -11.75,-0.875 1.90611,2.54811 3.89803,4.97609 6.625,6.375 -4.46471,0.99285 -8.75965,-2.25869 -13.0625,-5.3125 0.67993,1.07007 3.36453,7.38547 2.9375,7.1875 -0.7317,0.21339 -8.55658,-5.38683 -8.5,-5.5 l 1.375,7.75 c -2.18193,-1.11261 -4.23341,-3.39929 -6.25,-6 l -0.75,4.875 -5.25,-6.625 c -1.24658,0.93321 -1.82945,3.45932 -2.25,6.375 -1.90419,-1.83607 -3.22008,-4.45656 -4.125,-7.625 -1.28919,1.10065 -2.36618,3.68674 -3.5,5.875 -1.09662,-2.26841 -2.29291,-4.36241 -2.75,-7.75 -1.70169,1.46308 -2.83995,3.32861 -3.375,5.625 -1.29182,-1.63845 -1.58047,-4.53842 -1.875,-8.375 -0.20806,-0.60246 -3.625,2.4375 -3.625,2.4375 l 0.25,-9.3125 c -1.22661,0.53545 -2.82963,3.51761 -4.375,6.125 -0.0866,-2.59389 -1.55387,-2.59206 2.25,-12.5 l -4.3125,0.75 c 2.04441,-2.34982 1.51012,-3.78051 5.9375,-6.875 l -6.375,0.4375 c 1.36511,-1.83771 2.76718,-3.95271 5.75,-6.4375 -1.875,0.70639 -4.1875,1.40717 -6.0625,1.625 0.93542,-1.8875 1.76173,-3.60239 -0.4375,-4.5 -2.26359,-0.18705 -2.26416,3.02043 -3,5.125 -2.67961,-0.82883 -3.34113,-3.57749 -4.0625,-5.875 l -2.1875,4.875 c -1.28857,-1.52252 -1.75126,-4.41981 -2.6875,-4.1875 -1.3984,1.4875 -3.4375,4.6875 -3.4375,4.6875 -1.51162,-0.27423 -0.32486,-4.59605 0,-7.625 z"
       id="path4322"
       inkscape:connector-curvature="0"
       sodipodi:nodetypes="cccccccccccccccccccccccccccccccccccccccccccccccccccccccccccccccccccccccccccc" />
    <path
       style="color:#000000;font-style:normal;font-variant:normal;font-weight:normal;font-stretch:normal;font-size:medium;line-height:normal;font-family:sans-serif;text-indent:0;text-align:start;text-decoration:none;text-decoration-line:none;text-decoration-style:solid;text-decoration-color:#000000;letter-spacing:normal;word-spacing:normal;text-transform:none;direction:ltr;block-progression:tb;writing-mode:lr-tb;baseline-shift:baseline;text-anchor:start;white-space:normal;clip-rule:nonzero;display:inline;overflow:visible;visibility:visible;opacity:1;isolation:auto;mix-blend-mode:normal;color-interpolation:sRGB;color-interpolation-filters:linearRGB;solid-color:#000000;solid-opacity:1;fill:#000000;fill-opacity:1;fill-rule:nonzero;stroke:none;stroke-width:1.77165353;stroke-linecap:butt;stroke-linejoin:miter;stroke-miterlimit:4;stroke-dasharray:none;stroke-dashoffset:0;stroke-opacity:1;color-rendering:auto;image-rendering:auto;shape-rendering:auto;text-rendering:auto;enable-background:accumulate"
       d="m 78.099609,64.738281 c 0.88139,2.41287 1.345882,4.15254 2.707032,8.91211 -2.82383,-3.77265 -5.994227,-7.090155 -12.128907,-8.796875 2.10195,3.11558 2.203659,4.966345 3.386719,7.859375 -3.70008,-3.08854 -6.817226,-6.509667 -12.509765,-7.373047 0.43211,1.33656 4.75369,8.180851 5.90625,10.738281 -3.87224,-2.86642 -9.090544,-7.604832 -14.376954,-8.539063 1.16278,2.76896 5.451174,6.638419 7.189454,10.392579 -4.082041,-2.09023 -10.56344,-4.365682 -15.1875,-4.519532 2.855879,1.97936 3.691648,3.336255 7.261718,6.958985 -5.0484,-1.81785 -12.00828,-0.367408 -15.625,4.632812 5.12786,-0.40729 8.383798,-2.180052 11.111328,-0.914062 -7.66683,1.44006 -10.714547,5.496075 -10.585937,9.728515 3.30164,-2.68296 4.784325,-3.669853 8.578125,-5.294921 -3.93193,3.700349 -6.722356,6.686586 -7.160156,10.972656 1.96031,-1.56083 5.106777,-3.650406 6.685546,-4.666016 -2.14075,2.81261 -1.994563,5.306982 -1.464843,7.416012 1.45274,-1.21492 4.380167,-3.324145 5.810547,-4.355465 -0.207865,0.371599 -0.327712,0.883343 -0.404297,1.441406 -1.985273,2.580519 0.150564,5.921609 -1.699219,8.597659 -1.476004,2.13531 -4.323472,2.75785 -5.892578,3.65625 -0.309988,-2.69125 -2.598701,-5.47429 -5.441406,-5.41797 -4.78893,-0.17186 -7.304721,6.45209 -3.869141,9.66406 1.045662,1.21594 3.015306,1.64815 4.470703,1.57813 -0.383537,1.60039 1.630567,4.97869 2.462891,6.24609 5.974722,9.09786 18.576358,11.82423 29.742187,10.58398 0.510237,1.06894 0.471222,1.36433 0.28125,2.22071 -0.156075,0.70358 -1.70985,1.17448 -2.345703,1.43945 -2.802136,1.16771 -5.823299,2.81791 -6.332031,6.33203 -0.575267,3.97372 2.417747,6.42683 5.845703,5.6211 1.075708,1.42158 3.120431,2.72835 5.861328,1.06836 2.086335,0.93924 3.725951,1.73462 5.851563,-0.38477 1.466183,1.39595 4.102525,2.00088 5.52539,1.11719 4.396719,-2.73065 3.133711,-8.89215 3.626953,-13.42578 0.237682,-2.18464 0.564025,-3.40029 0.980469,-4.43555 0.497558,2.69919 2.250977,5.41069 4.476563,7.5625 0.17322,-2.81529 0.955641,-4.55602 2.363281,-6.69141 0.33976,2.34159 3.623912,5.1606 5.476562,7.14844 -0.50838,-2.16635 0.393167,-1.68704 0.472657,-4.94531 1.497269,1.79937 2.743639,3.21957 4.253909,4.28515 -0.55835,0.55761 -1.05468,1.08748 -1.15039,1.8711 -0.21848,1.78872 0.40653,4.09419 1.83203,5.16015 0.73786,0.55176 2.76507,-0.18209 3.17383,-0.32617 0.31783,0.74339 0.65299,1.98407 1.21875,2.60156 1.27223,1.38857 3.33912,1.30632 4.6582,0.34375 2.26771,1.82227 5.76262,0.88502 6,-0.17968 1.0303,1.06671 2.53509,1.44727 4.13672,0.26953 3.47685,-2.55665 0.55842,-7.6255 -0.35352,-10.85742 -0.22984,-0.81455 -0.37298,-1.33673 -0.59,-2.29655 -0.0625,-0.27662 1.29033,0.0622 1.71673,-0.79404 -1.29306,-0.33811 -2.13667,-0.63455 -2.19633,-0.97499 -0.17824,-0.91307 -0.33513,-2.31086 -0.45774,-3.1688 2.68939,0.25941 5.74015,0.30619 7.39062,-1.35742 -1.66486,-0.59364 -5.78913,-2.3138 -6.75,-4.61524 3.31326,0.36455 8.84247,0.85509 12.22266,-2.82617 -1.76422,-0.37356 -3.52195,-1.67254 -6.69336,-2.86133 2.09565,-0.62707 7.20863,-3.09113 8.93945,-6.73437 -2.7675,0.39347 -4.74443,-0.0429 -7.00195,-1.29883 1.69838,-1.79127 7.01982,-4.39373 8.26367,-8.21094 -2.63264,1.09189 -3.74162,1.4326 -7.02929,1.20704 1.45677,-1.38906 4.6788,-4.65949 5.92773,-7.16602 -2.78552,0.83969 -5.6888,0.389675 -7.87305,0.296875 1.78073,-1.75857 5.71966,-4.790059 5.95508,-8.261719 -2.35554,1.28723 -5.04273,-0.356648 -8.37109,-0.111328 1.34205,-1.6369 4.34448,-3.659567 5.17578,-7.242187 -2.92292,1.10025 -5.73348,1.814161 -8.71875,1.738281 0.69275,-2.0048 3.05741,-8.977147 1.4414,-10.248047 -0.85607,2.05517 -3.88175,4.752132 -6.85156,5.263672 -1.02969,-2.60755 -2.4099,-8.286482 -5.10937,-9.732422 0.22307,1.87088 -2.44275,7.187602 -3.48438,6.945313 -1.35386,-3.06365 -1.4372,-8.293949 -5.45508,-9.642579 0.67646,1.993 -0.45497,4.991811 -1.35742,7.337891 -1.21302,-3.53135 -2.637615,-8.68702 -6.373045,-9.21875 -0.31382,2.56682 0.591438,4.812324 -1.232422,8.507812 -2.41829,-3.744248 -4.852164,-6.741531 -8.365234,-9.607421 0.0629,2.55321 1.498611,5.082059 1.300781,8.818359 -2.41605,-3.49778 -4.956001,-8.593159 -9.244141,-9.042969 z m -6.609375,2.25 c 3.27829,1.56926 7.603523,6.723647 10.539063,9.310547 -0.0817,-4.06855 -0.678611,-6.632394 -1.113281,-8.365234 2.778,2.31886 4.407782,6.456167 7.351562,8.779297 0.83175,-3.03407 0.549809,-6.01848 0.292969,-7.19336 2.46468,2.65498 4.227927,5.143888 6.185547,7.548828 1.43152,-3.25562 2.271704,-5.512202 2.496094,-8.138671 1.931989,0.465319 2.69098,6.650966 5.294922,9.591796 1.94593,-3.36565 1.78406,-7.212363 2.4375,-6.783203 2.30447,2.63539 1.75767,5.551382 3.96289,7.826172 1.77811,-2.51483 3.41385,-4.382829 4.24805,-5.792969 1.45875,2.48822 1.47725,5.583121 3.20507,8.431641 1.87822,-0.18717 5.30059,-1.378299 7.14258,-3.730469 0.0304,2.52785 -2.55451,4.843655 -2.86914,8.271485 1.85077,0.14386 4.83822,0.951055 7.37696,-0.109375 -1.33939,1.60317 -3.19916,2.964551 -4.29883,5.576172 2.18776,0.61132 6.99983,1.134316 8.77539,1.097656 -1.58379,2.99506 -4.01622,3.706023 -6.38477,6.027344 2.55027,0.930332 3.54913,0.989592 6.87696,1.505862 -1.75182,1.76115 -3.38733,4.57423 -6.1875,6.40429 2.3576,0.7182 4.1319,0.55662 7.25,0.57422 -1.42266,1.54929 -4.26374,2.42667 -7.13086,5.57813 1.14685,1.14028 2.94594,1.71578 6.49609,2.75781 -1.39131,1.75409 -4.80309,1.89465 -8.70898,4.79102 2.22795,1.32215 4.71652,2.55326 6.7832,3.64648 -2.6883,1.1641 -6.12485,0.0382 -12.27149,0.79883 1.2585,1.93027 2.74928,4.2018 5.42188,5.9707 -2.33116,0.3104 -7.04564,-1.52743 -9.86328,-1.47851 0.54958,0.9189 1.19454,2.40176 2.37374,3.78274 0.81578,0.95537 2.33865,2.49806 3.80253,3.18393 -1.07536,0.0391 -2.97763,-0.56413 -4.97208,-1.69779 -3.15222,-1.79173 -6.66711,-4.51129 -8.51864,-5.0931 0.63791,2.19442 1.98288,3.4585 2.88476,7.3457 -2.27352,-1.32188 -5.01892,-3.76323 -7.89453,-5.125 0.75436,2.53838 1.26179,5.14968 1.66601,7.77539 -1.8624,-0.62502 -4.617499,-5.71575 -6.402339,-7.63281 0.11666,1.82425 -0.0527,3.36544 -0.388672,6.125 -1.11082,-1.98547 -3.380915,-5.14944 -4.853515,-7.1836 -1.09641,1.89114 -1.99436,3.69316 -2.31836,7.625 -1.702,-2.18423 -2.336053,-7.60033 -3.683593,-9.20703 -0.87294,2.05864 -1.671001,2.89397 -3.681641,6.71289 -1.14345,-2.2014 -1.728176,-4.67327 -2.478516,-7.99218 -1.02357,1.81224 -3.32039,3.25831 -3.90039,6.05468 -0.8441,-2.42716 -0.673116,-6.08986 -0.728516,-8.19921 -1.53355,-0.0878 -2.748746,0.98093 -4.003906,2.29296 0.17265,-2.00125 0.632801,-8.21274 0.74414,-10.26953 -1.3761,1.35946 -2.052116,1.4674 -5.128906,6.12305 0.96684,-5.29493 1.591477,-7.67816 3.191406,-10.74024 -1.645019,-0.12976 -2.796883,-0.13532 -4.402343,0.69141 1.02472,-2.6957 4.140153,-4.41346 5.876953,-6.69141 -1.19468,-0.0908 -3.326748,-1.18437 -6.117188,0.37696 0.95146,-2.45662 4.808677,-4.77851 5.685547,-6.96094 -2.53414,0.21229 -7.478422,3.60977 -5.576172,-0.67773 -0.30716,-2.131848 -1.821919,-3.032966 -3.099609,-2.351566 -1.46225,0.77982 -2.937181,3.529526 -2.619141,5.472656 -1.53589,-1.51227 -2.303215,-5.604834 -4.140625,-7.396484 -0.64098,2.28872 -0.972873,4.085974 -1.783203,5.568364 -1.49045,-1.26964 -0.927254,-5.796592 -1.708984,-5.685552 -0.6794,0.80198 -2.438574,4.933322 -4.183594,6.835942 -0.27029,-2.16244 0.649096,-5.386053 0.972656,-7.449223 -2.02811,0.56841 -4.487809,1.904736 -6.287109,3.791015 -0.15112,-2.215429 2.877324,-6.765589 3.833984,-8.693359 -1.93438,0.63539 -4.422027,2.90846 -7.804687,5.28125 1.88866,-3.22611 5.434717,-7.12632 8.023437,-8.21875 -2.93785,-0.55867 -8.039746,1.315078 -10.691406,3.580078 2.15226,-4.39137 8.407702,-5.312684 13.294922,-6.677734 -2.19717,-2.12941 -5.272859,-2.553119 -11.724609,-1.224609 4.81974,-2.759711 10.259077,-2.403627 14.710937,-1.029297 -1.24246,-3.58867 -4.617847,-5.69787 -6.560547,-7.4375 4.26947,1.08211 11.198721,4.341537 15.181641,6.054687 -1.3562,-4.49661 -5.117549,-8.534333 -7.50586,-10.970703 4.411311,0.22101 9.301623,8.000753 13.570313,8.757813 0.64717,-1.972082 -2.831176,-8.35546 -5.160156,-11.38086 4.596,2.64982 7.205094,6.270901 12.146484,9.082031 -0.14859,-3.75474 -2.104169,-6.998378 -2.949219,-9.423828 z m 2.708985,12.607422 c -2.87337,0.22955 -4.743338,1.729585 -6.173828,3.421875 -0.68963,0.81584 -1.109795,2.865704 -1.515625,3.308594 -2.06729,-1.04492 -4.704532,-2.636471 -7.050782,-3.900391 -0.18565,-0.19748 -1.96445,-0.799496 -2.27539,-0.753906 0.27928,1.67848 1.793248,3.733449 3.074218,4.630859 0.29195,0.20453 1.327075,0.840705 2.240235,1.583985 -1.10619,0.12056 -3.778096,-0.128491 -4.941406,0.255859 -1.68821,0.55777 -4.287667,2.423533 -4.748047,2.720703 1.19532,0.0635 3.474187,0.643469 4.654297,0.886719 1.82226,0.37562 2.545046,0.662853 4.029297,0.783203 0.56087,0.32095 0.591684,1.482059 1.015624,1.699219 0.39756,0.12487 0.115444,-2.045355 -0.285156,-2.677734 -0.50669,-0.621081 -1.416393,-0.435304 -2.121094,-0.433594 -0.951459,0.0794 -3.908471,-0.882374 -4.857421,-0.777344 3.04661,-2.29489 6.778613,-1.597041 9.814453,-1.369141 -0.52906,-0.79645 -1.958926,-2.113143 -2.822266,-2.595703 -1.02947,-0.57542 -2.200369,-1.52693 -2.787109,-2.625 0.095,-0.13895 0.999559,0.459858 1.412109,0.585938 2.04825,0.90425 4.482535,2.666329 6.646484,3.255859 0.007,-0.78768 0.346474,-2.600754 0.871094,-3.214844 0.68179,-0.79805 2.44879,-2.879087 3.41211,-3.304687 -0.80059,1.37698 -1.580844,3.883559 -1.214844,5.443359 0.4237,1.80571 1.105467,2.903599 1.435547,2.949219 -0.1755,-1.59878 -1.367114,-5.470747 0.722656,-8.060547 0.29468,-0.36557 1.170064,-1.44703 1.464844,-1.8125 z m 27.031251,2.195313 c 0.0472,1.94064 0.28613,3.992198 -0.57227,5.798828 -1.740367,-1.81585 -4.221863,-2.657072 -6.666012,-2.951172 -0.4448,-0.064 -0.889065,-0.12441 -1.333985,-0.1875 0.51854,1.20853 1.241374,2.344018 2.308594,3.142578 0.83866,0.74084 1.601823,1.1006 2.376953,1.90625 0.55169,0.85206 0.947563,2.530742 1.220703,2.638672 0.51502,-1.11248 -0.561242,-3.695225 -1.320312,-4.234375 -0.59008,-0.42259 -1.495807,-1.262289 -2.341797,-2.037109 2.11648,0.26899 3.442391,0.611498 4.800781,2.298828 0.21737,0.25569 0.752935,0.77799 1.302735,1.46875 0.97834,-1.27095 0.87708,-4.438453 0.96875,-5.970704 1.45651,1.58524 2.80372,6.775065 2.96094,7.453126 0.39395,-1.021411 0.63971,-2.173179 1.54883,-2.886719 0.59043,-0.51612 1.7225,-1.312465 2.16406,-1.365235 -0.66224,1.37733 -1.47075,2.803947 -1.44336,4.373047 0.0969,0.24309 0.0306,0.958373 0.24804,0.914063 1.22967,-1.04002 2.20871,-2.271018 3.87696,-2.117188 0.4738,0.007 2.6316,0.01861 1.98047,0.253906 -1.88134,0.55189 -4.27036,2.065944 -4.48633,3.689454 -0.23267,0.32629 0.51665,0.07453 0.72266,0.142578 1.21309,-0.052 2.22726,-0.192248 3.11718,0.794922 0.66603,0.53898 1.0939,0.89173 2.28516,1.33789 -0.71691,-1.03215 -1.0084,-1.716332 -1.41406,-2.070312 -0.63084,-0.57081 -2.45251,-0.923627 -2.9043,-1.097656 0.87068,-1.43899 2.47419,-2.192955 4.06836,-2.521485 l 1.24219,-0.316406 c -1.65639,-0.55038 -3.15275,-1.660851 -4.92579,-1.275391 -0.75544,-0.0236 -1.88245,0.63331 -2.85351,1.34375 0.53966,-1.65598 1.51189,-3.284964 2.23633,-4.771484 l 0.58008,-1.095703 c -2.09469,1.03378 -4.43186,1.896573 -5.85938,3.845703 -1.02805,-2.44657 -2.27076,-4.923566 -3.88867,-6.503906 z m -26.207032,8.095703 c -0.45439,1.4831 -0.495914,3.143883 -1.339844,4.464843 -0.53971,0.492391 -0.705165,0.621706 -1.359375,1.072266 0.85349,0.15524 1.279769,0.236551 2.099609,-0.474609 0.46534,-0.60869 0.754672,-1.860487 1.107422,-2.060547 0.67178,1.36103 0.429796,2.819495 0.472656,4.546875 1.57968,-0.78236 3.029425,-1.160119 4.546875,-1.074219 -1.04815,0.93433 -2.388218,1.747637 -2.892578,3.123047 0.0404,0.2826 -0.34414,1.324025 0.25,1.074215 1.64965,-0.3962 3.604258,-0.0804 4.679688,1.34375 -1.70278,0.17262 -3.766883,1.00475 -4.664063,1.98633 -0.3123,0.34168 -0.536512,0.81061 -1.101562,1.49414 1.32729,1.19455 2.152884,1.19472 3.615234,1.07422 0.7661,-0.0631 1.640449,0.0376 2.693359,0.10938 -1.29996,1.65675 -3.31661,3.60718 -4.625,4.69921 0.25206,0.30465 1.862324,0.32106 2.652344,0.24415 1.49396,-0.14544 2.600535,-0.18409 3.771485,-1.30079 0.17817,0.9976 -0.05016,1.8066 -0.06836,2.55079 -0.0308,1.26006 -0.05381,1.92524 -0.191406,3.16992 1.26179,-1.19749 2.827389,-2.1177 3.755859,-3.62305 0.25186,-0.5268 0.469725,-1.20611 0.140625,-2.55078 -0.74637,0.50521 -0.528181,1.27188 -0.925781,1.7793 -0.30245,0.68439 -1.293086,1.70426 -1.691406,1.70898 0.15007,-1.65307 0.242775,-4.04334 -0.927735,-5.3125 -0.25535,-0.58426 -0.820418,1.04186 -1.017578,1.29492 -0.58413,1.20136 -2.25788,1.45359 -3.46875,1.52149 1.46708,-1.09949 3.713584,-3.66702 3.621094,-5.6543 -0.81571,0.16638 -1.966546,0.35988 -2.472656,0.29102 -1.20892,-0.0218 -2.056011,0.15293 -3.212891,-0.32422 0.4147,-0.91735 1.658602,-1.65475 2.544922,-1.85157 1.11873,-0.30302 2.280351,-0.35821 3.431641,-0.42578 -0.6276,-1.26986 -1.552751,-2.48718 -2.962891,-2.923825 -0.7136,-0.38481 -2.016162,-0.200772 -2.445313,-0.451172 0.720321,-1.3299 2.128786,-2.075437 3.203126,-3.085937 0.34447,-0.29538 0.687279,-0.590749 1.03125,-0.886719 -2.042231,-0.394 -4.2633,-0.364659 -6.13086,0.644531 -0.11601,-2.5744 -0.616481,-4.651159 -2.11914,-6.193359 z M 52.115234,99.894531 c 1.13133,2.078989 0.445046,2.464729 2.603516,4.904299 0.66743,-2.38108 1.08318,-3.07876 1.9375,-4.40039 0.65811,1.65556 1.769599,3.88127 5.074219,5.13672 -0.10994,-1.68532 0.188136,-5.50171 1.535156,-5.31055 1.7183,-0.22407 2.128617,2.21924 -0.189453,4.25195 2.95647,-0.195 3.553575,-0.74986 4.921875,-0.75976 -1.30083,0.77409 -4.096243,4.13101 -4.195313,5.54101 1.50097,-0.18537 3.588834,-0.52125 5.283204,-0.48242 -3.52819,2.90587 -4.881524,5.87378 -5.046876,7.62891 2.372451,-1.31613 3.461296,-1.08143 4.390626,-0.89453 -1.12534,2.96361 -4.152762,10.7986 -1.175782,12.74218 1.169,-2.33426 1.889589,-3.88726 3.511719,-5.48437 -0.28616,2.17947 -0.573942,5.52448 -0.101563,8.75195 1.189122,-1.50465 2.304214,-1.29244 3.902344,-2.6875 -0.68267,2.36177 -0.115132,5.52362 2.117188,8.90625 0.63732,-1.9237 1.430502,-3.08788 3.044922,-5.80859 -0.15664,2.65301 2.30182,5.43755 3.701172,8.26367 0.146563,-1.36511 0.470536,-2.44865 0.849609,-3.35547 -0.06606,0.27451 -0.131031,0.53141 -0.199219,0.83594 -0.657401,2.93591 -0.670036,6.31969 -1.03125,8.5664 -0.187988,1.16925 -0.69964,2.20952 -1.347656,2.95508 -1.036441,1.19244 -3.453564,1.89856 -5.345703,-0.25 -2.354386,1.598 -4.782957,0.94149 -5.498047,-0.42773 -1.588986,1.16941 -3.821193,2.17249 -4.882813,0.27539 -1.37706,-2.54524 0.289757,-5.38472 2.826172,-6.57813 2.368985,-1.11463 4.661359,-2.02299 5.708985,-4.01562 1.0518,-2.00056 0.816641,-3.75037 -0.31836,-3.875 -0.27472,4.08319 -2.756067,4.53314 -4.597656,5.4707 -2.561533,1.30409 -5.56152,2.77829 -5.833984,6.07031 -0.05846,0.70634 -0.04113,1.84728 0.04297,2.44532 -1.846155,0.22602 -3.466694,-1.33776 -3.640625,-2.90039 -0.154723,-1.39006 0.840306,-3.24538 1.94336,-3.94141 1.916948,-1.02577 3.842959,-2.04088 5.755859,-3.07617 1.39788,-2.05922 1.778993,-3.93902 0.320313,-5.49414 -9.69308,0.90909 -20.663336,-0.71828 -27.664063,-8.06055 -2.070755,-2.17178 -3.536429,-4.86648 -4.474609,-7.71094 1.796261,-0.64183 3.298637,-2.13112 3.570312,-4.1582 2.254623,-0.57563 4.80695,-1.48138 6.609375,-3.05859 1.15178,-1.03662 1.290698,-1.5801 1.679688,-2.48633 0.294862,-0.68693 0.334584,-1.43627 0.335937,-2.33789 0.09471,0.12973 0.192638,0.24181 0.294922,0.31054 1.13806,-1.8845 2.445131,-4.38912 3.582029,-5.501949 z m 4.638672,5.031249 c -4.59168,-0.10188 -5.560503,6.71518 -2.371094,10.11328 0.402102,1.13149 -0.104514,1.48364 -0.03906,2.3086 1.84792,-0.37255 4.383331,-1.31918 6.025391,-2.79102 2.63464,-3.79115 0.386046,-9.54208 -3.615237,-9.63086 z m -0.06055,1.67578 c 1.946377,0.028 4.299735,3.72259 3.416016,6.41797 -1.149087,1.04487 -1.993086,1.40681 -4.5625,2.16992 -1.152768,-1.34351 -1.56778,-3.48953 -1.53125,-4.94531 0.0384,-1.53091 0.995479,-3.66677 2.677734,-3.64258 z m -23.312115,0.99077 c 1.783263,0.14777 0.672545,0.97658 1.508046,2.23507 0.627717,0.94547 0.540768,1.13594 1.974411,1.50773 0.899142,0.30988 1.454054,1.66445 0.815103,2.58533 -0.727419,1.36288 -1.836812,1.6445 -3.085863,2.04634 -2.625306,0.10985 -4.512358,-2.46728 -4.573412,-3.95703 -0.100458,-2.45129 1.610659,-4.02153 3.361715,-4.41744 z m 23.464459,1.40181 c -0.0557,0.002 -0.111108,0.007 -0.166015,0.0156 -0.912597,0.14224 -1.509196,1.18673 -1.332032,2.33203 0.177096,1.14511 1.060547,1.95683 1.972656,1.8125 0.911739,-0.14346 1.507248,-1.18757 1.330079,-2.33203 -0.16464,-1.06418 -0.944691,-1.85436 -1.804688,-1.82813 z m 62.05078,9.08984 c -1.3135,0.91459 -4.36051,0.67404 -6.19531,0.34375 1.03106,1.21512 2.15769,2.34689 3.41992,3.32422 -2.45168,4.7e-4 -4.11453,-0.60668 -6.125,-1.85742 0.15877,1.60962 0.25535,2.2356 1.08203,3.57617 -1.58402,-0.61748 -2.91228,-1.71039 -4.06054,-2.9414 -0.57661,2.28538 0.56856,4.81724 1.41211,6.77539 -1.38294,-1.51135 -2.8964,-4.42222 -4.20313,-5.99414 -0.93093,2.03797 -1.51061,4.57789 -2.88672,5.8789 -0.67073,-2.78112 -0.72928,-4.00775 -2.271484,-6.09961 -0.17212,1.59862 -1.081394,3.56738 -2.146484,4.81055 0.76276,-1.98465 0.305784,-3.84422 -0.322266,-5.61914 -0.28382,0.67901 -0.402993,1.44847 -0.845703,2.04297 -0.55976,0.67674 -2.163558,0.97281 -3.667968,1.10547 1.014499,0.37896 2.157932,0.6435 2.945312,0.38086 0.64846,-0.2163 0.986294,-0.14979 1.496094,-0.93946 0.0251,1.98439 -1.259238,4.13748 -1.929688,5.94922 0.95332,0.0614 3.264404,-2.04468 3.808594,-3.15039 0.43348,-0.55589 0.579539,-2.01816 0.917969,-2.09961 0.738024,1.82958 0.927944,3.84601 1.414064,5.40039 2.19888,-1.31598 3.03428,-3.39121 3.85742,-5.25586 1.21524,1.857 2.32937,4.07952 4.4961,4.97657 l 1.25976,0.49414 c -0.84545,-1.90135 -2.12335,-4.48323 -2.55468,-6.54102 1.4977,1.54843 6.08757,2.87765 6.81835,2.83399 -0.84054,-0.94566 -2.55806,-2.16969 -3.1582,-3.5293 2.49032,0.81886 4.89454,1.21529 7.09375,0.84961 -1.05957,-0.66872 -2.63491,-2.61168 -3.44531,-3.43555 1.91786,0.2945 3.62818,-0.24195 3.79101,-1.2793 z m -62.205077,1.69336 c -0.156606,0.61633 0.754959,1.25161 0.539063,1.81836 -0.280772,0.73707 -0.395488,1.74209 -0.792969,2.41992 -1.092,1.86222 -1.832346,2.70736 -3.146484,3.36719 -2.305403,1.15754 -5.544916,-1.2096 -6.94336,-0.46093 2.331784,1.74831 5.444275,2.64974 7.5625,2.28515 1.685396,-0.29008 3.07902,-1.70098 3.648438,-3.68945 0.233225,-0.81445 0.320839,-2.86166 1.039062,-3.71289 0.637117,-0.7551 1.959286,-0.31325 1.503906,-1.05469 -1.608234,-0.0731 -2.255948,-0.33908 -3.410156,-0.97266 z m 1.960938,7.5918 c -0.591337,0.1871 -1.061418,2.06399 -2.134766,2.51563 -1.373751,0.57803 -3.120649,0.38462 -3.216797,0.78125 0,0 3.072851,0.44083 3.900391,-0.1836 1.13722,-0.85821 1.451172,-3.11328 1.451172,-3.11328 z m 59.005859,5.0625 c 0.54823,0.0191 1.24117,0.0958 1.98633,0.18164 0.12236,0.86335 0.27516,1.82483 0.46289,2.8418 -0.82731,-0.95415 -1.69027,-1.91223 -2.44922,-3.02344 z m -6.17612,1.56315 c 2.33458,1.47043 6.75423,4.21101 9.12389,3.82043 0.15112,0.69651 0.21673,1.03971 0.36669,1.58126 0.37848,1.3669 2.11618,5.03075 2.13281,7.02344 0.013,1.55198 -1.2013,3.63003 -4.25391,2.09375 -1.46561,1.5027 -3.80241,1.12623 -5.41211,0.0274 -1.79903,0.96339 -3.35658,1.31864 -3.98633,0.1582 -0.33146,-0.61083 -1.09412,-1.38907 -0.42187,-3.48633 0.86206,-2.68941 1.56068,-2.95712 2.45117,-4.4375 0.11349,-0.44217 0.21733,-0.87961 0.32227,-1.31641 0.75545,0.20821 1.53304,0.37504 2.33593,0.45508 -0.76873,-0.78448 -1.39221,-1.63564 -1.91796,-2.50195 0.13892,-0.87269 -0.71303,-2.50731 -0.74058,-3.41732 z m -6.30435,1.91341 c 0.37708,0.35081 0.86687,0.73982 1.4375,1.13282 -0.22895,0.19404 -0.50291,0.47235 -0.85546,1.08593 -0.1068,0.0655 -0.20587,0.15723 -0.30079,0.25977 -0.027,-0.76963 -0.0842,-1.58183 -0.28125,-2.47852 z m 3.37305,2.2793 c 0.60087,0.30854 1.24767,0.59287 1.92969,0.8457 -0.0254,0.24707 -0.0599,0.47123 -0.0762,0.73828 -1.77245,1.08642 -3.34484,4.0277 -3.28125,6.10938 -0.13874,0.52648 -1.74055,0.61709 -1.90625,0.16992 -0.77398,-0.88765 -0.67154,-2.21105 -0.4336,-3.26367 0.0528,-0.23354 0.13556,-0.46193 0.23633,-0.6875 0.29543,0.13906 0.59829,0.27219 0.92188,0.39062 -0.21303,-0.37907 -0.32071,-0.81591 -0.37891,-1.30273 0.74404,-1.02021 1.84354,-1.88186 2.79102,-2.40039 0.07,-0.26774 0.13645,-0.46114 0.19726,-0.59961 z"
       transform="translate(317.11935,70.881717)"
       id="path3789-7-8-1"
       inkscape:connector-curvature="0"
       sodipodi:nodetypes="cccccccccccccccccccsccccscssscccssccccccsscsccsscccccccccccccccccccccccccccccccccccccccccccccccccccccccccscsccccccccccccccccccccccsccccccccccccccccccccccscccscscsccccccscccscsccccccccccccccccccccccccccccccccccccccccccccccsccccsccccccccccccccccccccccccccccccccccccccccssscccsscsscscccscccscccscccssccsscscccscccccccccccccccccccccsccccccccccccccccsscsssccccccccccccccccccscccccccccccccccscccccccc" />
  </g>
</svg>
