<?xml version="1.0" encoding="UTF-8"?>
<svg xmlns="http://www.w3.org/2000/svg" viewBox="507.176 715.949 1821.793 1403.203" role="img" aria-labelledby="title desc">
  <title id="title">TemplateHedgehog mark</title>
  <desc id="desc">Stylised hedgehog icon</desc>
  <path fill-rule="evenodd" fill="#14132B" d="M 2082.539062 1073.539062 C 2089.761719 1102.960938 2093.378906 1144.230469 2099.980469 1182.078125 C 2106.988281 1222.351562 2116.941406 1258.730469 2123.441406 1272.808594 C 2142.179688 1313.460938 2154.75 1342.539062 2192.070312 1370.921875 C 2201.691406 1378.238281 2220.628906 1382.621094 2236.398438 1389.109375 C 2251.410156 1395.28125 2263.921875 1403.371094 2270.03125 1413.371094 C 2277.398438 1425.441406 2286.96875 1444.410156 2282.949219 1466.019531 C 2279.199219 1486.179688 2263.519531 1510.558594 2216.628906 1532.441406 C 2136.96875 1569.621094 2025.890625 1617.011719 1964.820312 1639.578125 C 1924.050781 1654.640625 1835.828125 1710.539062 1798.390625 1750.949219 C 1767.71875 1784.058594 1742.328125 1845.75 1742.328125 1876.035156 C 1742.328125 1902.105469 1751.289062 1921.6875 1755.03125 1936.417969 C 1759.359375 1953.441406 1757.761719 1966.332031 1747.539062 1976.554688 C 1736.421875 1987.679688 1703.621094 2000.472656 1673.550781 2000.960938 C 1650.960938 2001.324219 1630.480469 1994.589844 1619.351562 1979.816406 C 1609.75 1967.054688 1603.5 1944.402344 1600.230469 1917.054688 C 1596.699219 1887.585938 1596.011719 1852.253906 1595.058594 1820.140625 C 1507.628906 1848.671875 1386.25 1875.316406 1265.820312 1894.761719 C 1259.761719 1917.691406 1255.128906 1939.460938 1255.128906 1953.660156 C 1255.128906 1979.730469 1264.089844 1999.3125 1267.828125 2014.039062 C 1272.160156 2031.0625 1270.558594 2043.957031 1260.339844 2054.175781 C 1249.191406 2065.328125 1216.28125 2076.84375 1186.121094 2077.019531 C 1163.871094 2077.152344 1143.671875 2070.890625 1132.800781 2058.246094 C 1122.871094 2046.691406 1117.101562 2027.953125 1114.398438 2004.488281 C 1111.5 1979.253906 1111.621094 1947.917969 1109.761719 1915.867188 C 1013.160156 1925.996094 928.738281 1927.382812 877.601562 1922.878906 C 701.9375 1907.40625 575.632812 1990.761719 575.632812 1990.761719 C 569.460938 1994.851562 561.289062 1994.179688 555.867188 1989.140625 C 550.441406 1984.101562 549.175781 1976.003906 552.800781 1969.546875 L 641.535156 1809.140625 C 611.398438 1802.25 576.949219 1809.808594 555.625 1813.738281 C 573.640625 1758.75 622.855469 1674.640625 669.964844 1635.300781 L 595.644531 1641.488281 C 612.472656 1576.238281 641.417969 1515.019531 683.609375 1458.230469 L 604.335938 1443.359375 C 635.753906 1387.121094 682.976562 1344.929688 739.761719 1311.238281 L 621.507812 1300.921875 C 680.011719 1254.371094 743.429688 1217.648438 812.507812 1192.230469 L 726.730469 1153.53125 C 770.546875 1116.558594 853.695312 1084.289062 936.273438 1061.421875 L 859.890625 1018.058594 C 913.269531 983.949219 979.328125 966.75 1058.078125 966.449219 L 1016.789062 881.808594 C 1089.730469 883.699219 1162.671875 891.148438 1235.609375 912.78125 L 1198.460938 819.578125 C 1282.941406 829.53125 1366.589844 847.800781 1448.25 885.941406 L 1400.769531 776.53125 C 1473.570312 800.199219 1542.859375 830.910156 1607.210938 871.488281 L 1565.921875 757.949219 C 1647.210938 798.261719 1722.441406 842.609375 1786.808594 894.199219 L 1753.78125 757.949219 C 1753.78125 757.949219 1801.269531 780.660156 1836.359375 809.558594 C 1871.460938 838.460938 1951.96875 916.910156 1951.96875 916.910156 L 1958.160156 766.199219 C 1958.160156 766.199219 1964.921875 811.789062 2005.640625 863.230469 C 2032.71875 897.441406 2062.988281 993.960938 2082.539062 1073.539062 Z M 2215.769531 1415.5 C 2199.320312 1409.449219 2182.289062 1403.769531 2172.660156 1396.441406 C 2130.519531 1364.390625 2115.480469 1332.140625 2094.320312 1286.238281 C 2078.46875 1251.871094 2074.351562 1214.03125 2063.789062 1199.019531 C 2050.578125 1180.21875 2041.699219 1178.359375 2001.789062 1176.699219 C 1925.210938 1173.511719 1867.46875 1185.230469 1807.179688 1227.160156 C 1784.148438 1243.171875 1763.359375 1267.550781 1751.261719 1286.328125 C 1731.039062 1317.691406 1723.191406 1342.121094 1723.191406 1342.121094 C 1720.601562 1348.089844 1714.660156 1351.910156 1708.148438 1351.769531 C 1701.640625 1351.640625 1695.859375 1347.578125 1693.519531 1341.5 C 1693.519531 1341.5 1685.421875 1320.910156 1650.429688 1266.828125 C 1617.679688 1216.21875 1553.078125 1212.160156 1498 1221.101562 C 1481.371094 1223.789062 1478.621094 1240.699219 1478.460938 1259.578125 C 1478.121094 1298.898438 1495.140625 1349.410156 1503.558594 1369.070312 C 1508.5 1380.589844 1522.148438 1391.078125 1536.039062 1400.230469 C 1559.839844 1415.910156 1585.78125 1426.628906 1585.78125 1426.628906 C 1592.769531 1429.511719 1596.789062 1436.890625 1595.429688 1444.320312 C 1594.070312 1451.761719 1587.699219 1457.238281 1580.148438 1457.46875 L 1525.648438 1459.121094 C 1472.800781 1460.71875 1399.648438 1501.238281 1297.058594 1561.289062 C 1222.808594 1604.761719 1124.160156 1716.460938 818.976562 1808.910156 C 757.386719 1827.570312 698.601562 1820.480469 672.820312 1821.300781 C 657.421875 1848.726562 607.308594 1937.964844 607.308594 1937.964844 C 662.777344 1912.949219 760.871094 1880.410156 880.414062 1890.941406 C 933.070312 1895.578125 1021.941406 1893.660156 1122.78125 1882.191406 C 1127.078125 1881.699219 1131.410156 1882.976562 1134.761719 1885.726562 C 1138.109375 1888.476562 1140.199219 1892.46875 1140.558594 1896.789062 C 1143.660156 1934.046875 1142.890625 1971.578125 1146.25 2000.828125 C 1148.058594 2016.5625 1150.460938 2029.597656 1157.121094 2037.34375 C 1162.851562 2044.011719 1174.199219 2045.03125 1185.929688 2044.960938 C 1199.359375 2044.878906 1213.628906 2042.140625 1224.679688 2038.167969 C 1230.351562 2036.128906 1235.121094 2034.054688 1237.671875 2031.507812 C 1238.71875 2030.460938 1238.101562 2029.042969 1237.890625 2027.488281 C 1237.378906 2023.59375 1236.089844 2019.253906 1234.601562 2014.382812 C 1229.800781 1998.625 1223.070312 1978.691406 1223.070312 1953.660156 C 1223.070312 1935.429688 1229.390625 1905.996094 1237.609375 1876.292969 C 1239.28125 1870.234375 1244.351562 1865.71875 1250.550781 1864.734375 C 1381.988281 1843.949219 1515.800781 1814.371094 1605.011719 1782.921875 C 1609.808594 1781.230469 1615.121094 1781.910156 1619.328125 1784.769531 C 1623.539062 1787.621094 1626.148438 1792.300781 1626.359375 1797.378906 C 1627.851562 1833.660156 1627.808594 1877.789062 1632.058594 1913.242188 C 1634.511719 1933.675781 1637.789062 1951 1644.96875 1960.53125 C 1650.570312 1967.96875 1661.660156 1969.085938 1673.03125 1968.902344 C 1693.859375 1968.566406 1717.171875 1961.589844 1724.871094 1953.882812 C 1725.921875 1952.835938 1725.300781 1951.421875 1725.089844 1949.867188 C 1724.578125 1945.972656 1723.289062 1941.628906 1721.800781 1936.761719 C 1717 1921.003906 1710.269531 1901.070312 1710.269531 1876.035156 C 1710.269531 1840.582031 1738.96875 1767.921875 1774.871094 1729.160156 C 1815.089844 1685.738281 1909.898438 1625.691406 1953.699219 1609.511719 C 2014.191406 1587.148438 2124.179688 1540.199219 2203.070312 1503.390625 C 2213.28125 1498.621094 2221.601562 1493.949219 2228.289062 1489.351562 C 2218.839844 1474.21875 2213.371094 1456.328125 2213.371094 1437.191406 C 2213.371094 1429.738281 2214.199219 1422.480469 2215.769531 1415.5 Z M 1952.230469 1297.890625 C 1975.179688 1297.890625 1993.808594 1316.519531 1993.808594 1339.480469 C 1993.808594 1362.429688 1975.179688 1381.058594 1952.230469 1381.058594 C 1929.28125 1381.058594 1910.648438 1362.429688 1910.648438 1339.480469 C 1910.648438 1316.519531 1929.28125 1297.890625 1952.230469 1297.890625 "/>
</svg>
