<svg width="256" height="256" viewBox="0 0 256 256" fill="none" xmlns="http://www.w3.org/2000/svg">
  <defs>
    <linearGradient id="bg" x1="24" y1="20" x2="228" y2="236" gradientUnits="userSpaceOnUse">
      <stop stop-color="#15344A"/>
      <stop offset="1" stop-color="#0A1C2B"/>
    </linearGradient>
    <linearGradient id="hog" x1="70" y1="88" x2="188" y2="188" gradientUnits="userSpaceOnUse">
      <stop stop-color="#94E8FF"/>
      <stop offset="1" stop-color="#4BBDE8"/>
    </linearGradient>
  </defs>

  <rect x="16" y="16" width="224" height="224" rx="52" fill="url(#bg)"/>
  <rect x="16" y="16" width="224" height="224" rx="52" stroke="#3A7397" stroke-width="2.5"/>

  <path d="M62 122L78 90L96 120" fill="#86E2FF"/>
  <path d="M82 112L100 80L118 112" fill="#99EAFF"/>
  <path d="M106 108L124 76L142 108" fill="#A9EFFF"/>
  <path d="M130 110L148 80L166 110" fill="#97E9FF"/>
  <path d="M154 118L170 92L186 118" fill="#7DDBFF"/>

  <ellipse cx="126" cy="142" rx="64" ry="48" fill="url(#hog)"/>
  <ellipse cx="174" cy="150" rx="20" ry="15" fill="url(#hog)"/>

  <circle cx="179" cy="146" r="3.6" fill="#0B2A3E"/>
  <circle cx="191" cy="152" r="4.2" fill="#0B2A3E"/>

  <path d="M118 174C128 181 141 181 151 174" stroke="#0B2A3E" stroke-width="6" stroke-linecap="round"/>
</svg>
