<svg width="256" height="256" viewBox="0 0 256 256" fill="none" xmlns="http://www.w3.org/2000/svg">
  <defs>
    <linearGradient id="bg" x1="18" y1="16" x2="236" y2="240" gradientUnits="userSpaceOnUse">
      <stop stop-color="#15344A"/>
      <stop offset="1" stop-color="#0A1C2B"/>
    </linearGradient>
    <linearGradient id="accent" x1="64" y1="54" x2="188" y2="188" gradientUnits="userSpaceOnUse">
      <stop stop-color="#91E7FF"/>
      <stop offset="1" stop-color="#4CBDE8"/>
    </linearGradient>
  </defs>

  <rect x="16" y="16" width="224" height="224" rx="50" fill="url(#bg)"/>
  <rect x="16" y="16" width="224" height="224" rx="50" stroke="#3A7397" stroke-width="2.5"/>

  <path d="M72 86L88 64L103 86" fill="#8CE4FF"/>
  <path d="M97 80L114 58L131 82" fill="#A3ECFF"/>
  <path d="M124 82L142 60L158 84" fill="#8FE6FF"/>
  <path d="M151 86L166 66L180 87" fill="#79DAFF"/>

  <rect x="56" y="96" width="144" height="108" rx="22" fill="url(#accent)"/>

  <path d="M86 120V182" stroke="#0B2A3E" stroke-width="16" stroke-linecap="round"/>
  <path d="M86 146H132" stroke="#0B2A3E" stroke-width="16" stroke-linecap="round"/>
  <path d="M132 120V182" stroke="#0B2A3E" stroke-width="16" stroke-linecap="round"/>
  <path d="M170 120V182" stroke="#0B2A3E" stroke-width="16" stroke-linecap="round"/>
  <path d="M142 120H198" stroke="#0B2A3E" stroke-width="16" stroke-linecap="round"/>
  <path d="M170 150H196" stroke="#0B2A3E" stroke-width="16" stroke-linecap="round"/>
</svg>
