<svg width="256" height="256" viewBox="0 0 256 256" fill="none" xmlns="http://www.w3.org/2000/svg">
  <defs>
    <linearGradient id="bg" x1="18" y1="16" x2="238" y2="240" gradientUnits="userSpaceOnUse">
      <stop stop-color="#1457B9"/>
      <stop offset="1" stop-color="#0A2F7A"/>
    </linearGradient>
    <linearGradient id="spikeA" x1="52" y1="96" x2="168" y2="168" gradientUnits="userSpaceOnUse">
      <stop stop-color="#3CC8FF"/>
      <stop offset="1" stop-color="#155DDB"/>
    </linearGradient>
    <linearGradient id="spikeB" x1="116" y1="66" x2="214" y2="148" gradientUnits="userSpaceOnUse">
      <stop stop-color="#5DDBFF"/>
      <stop offset="1" stop-color="#1560DD"/>
    </linearGradient>
    <linearGradient id="face" x1="128" y1="104" x2="232" y2="182" gradientUnits="userSpaceOnUse">
      <stop stop-color="#F4FAFF"/>
      <stop offset="1" stop-color="#E2EEFB"/>
    </linearGradient>
  </defs>

  <rect x="16" y="16" width="224" height="224" rx="50" fill="url(#bg)"/>

  <g transform="translate(4 32) scale(0.95)">
    <path d="M22 92C56 76 89 72 121 78L96 52C128 55 154 63 178 76L164 40C185 53 202 69 216 92L233 100C232 114 223 127 208 134L176 142H34C54 115 82 95 126 84L22 92Z" fill="url(#spikeA)"/>
    <path d="M148 26L177 76L140 64L148 26Z" fill="url(#spikeB)"/>
    <path d="M183 24L207 80L174 72L183 24Z" fill="url(#spikeB)"/>
    <path d="M214 36L230 86L205 78L214 36Z" fill="url(#spikeB)"/>
    <path d="M35 142C57 115 86 97 140 84C118 87 97 95 77 108C60 119 47 131 35 142Z" fill="#0A3F9E"/>
    <path d="M83 137C100 116 123 107 157 107C146 113 136 122 129 132C123 140 119 145 118 148H83V137Z" fill="#1C79E5"/>
    <path d="M110 120C128 102 152 88 181 83C201 79 220 82 239 90C238 98 232 106 223 111C218 114 208 120 194 128C180 135 168 141 157 143H120C121 139 124 135 130 131C136 126 147 122 163 117C176 113 188 107 197 101L174 88C157 90 142 98 129 111L110 120Z" fill="url(#face)"/>
    <circle cx="194" cy="90" r="7" fill="#0A4DAF"/>
  </g>
</svg>
